<svg xmlns="http://www.w3.org/2000/svg" xmlns:xlink="http://www.w3.org/1999/xlink" width="740" height="581.04"><rect width="740" height="581.04" rx="5" ry="5" class="a"/><svg y="0%" x="0%"><circle cx="20" cy="20" r="6" fill="#ff5f58"/><circle cx="40" cy="20" r="6" fill="#ffbd2e"/><circle cx="60" cy="20" r="6" fill="#18c132"/></svg><svg height="521.04" viewBox="0 0 70 52.104" width="700" x="15" xmlns="http://www.w3.org/2000/svg" xmlns:xlink="http://www.w3.org/1999/xlink" y="50"><style>@keyframes o{0%{transform:translateX(0)}1.28%{transform:translateX(-70px)}1.43%{transform:translateX(-140px)}9.93%{transform:translateX(-280px)}10.52%{transform:translateX(-350px)}11.15%{transform:translateX(-420px)}11.16%{transform:translateX(-490px)}12.04%{transform:translateX(-630px)}13.22%{transform:translateX(-700px)}13.38%{transform:translateX(-770px)}14.08%{transform:translateX(-840px)}14.79%{transform:translateX(-910px)}15.12%{transform:translateX(-980px)}15.68%{transform:translateX(-1050px)}16.25%{transform:translateX(-1120px)}16.73%{transform:translateX(-1190px)}18.12%{transform:translateX(-1260px)}20.88%{transform:translateX(-1330px)}24.2%{transform:translateX(-1400px)}28.96%{transform:translateX(-1470px)}32.56%{transform:translateX(-1610px)}36.27%{transform:translateX(-1750px)}36.38%{transform:translateX(-1820px)}44.88%{transform:translateX(-1960px)}45.01%{transform:translateX(-2030px)}45.02%{transform:translateX(-2100px)}46.28%{transform:translateX(-2240px)}47.75%{transform:translateX(-2310px)}48.89%{transform:translateX(-2380px)}51.18%{transform:translateX(-2450px)}52.9%{transform:translateX(-2520px)}53.53%{transform:translateX(-2590px)}58.31%{transform:translateX(-2730px)}58.32%{transform:translateX(-2800px)}58.33%{transform:translateX(-2870px)}58.34%{transform:translateX(-2940px)}58.56%{transform:translateX(-3080px)}67.06%{transform:translateX(-3220px)}67.49%{transform:translateX(-3360px)}68.3%{transform:translateX(-3430px)}69.59%{transform:translateX(-3500px)}76.85%{transform:translateX(-3640px)}82.84%{transform:translateX(-3780px)}82.85%{transform:translateX(-3850px)}91.36%{transform:translateX(-3990px)}91.5%{transform:translateX(-4060px)}to{transform:translateX(-4130px)}}.a{fill:#24292e}.f,.g,.h,.i{fill:#79b8ff;white-space:pre}.g,.h,.i{fill:#f692ce}.h,.i{fill:#85e89d}.i{fill:#444d56}.j{fill:#fafbfc}.j,.k,.q{white-space:pre}.k{fill:#fafbfc;text-decoration:underline}.q{fill:#f97583;font-weight:700}</style><g font-family="Monaco,Consolas,Menlo,'Bitstream Vera Sans Mono','Powerline Symbols',monospace" font-size="1.67"><defs><symbol id="1"><text y="1.67" class="f">~</text><text x="2.004" y="1.67" class="g">❯</text></symbol><symbol id="2"><text y="1.67" class="f">~</text><text x="2.004" y="1.67" class="g">❯</text><text x="4.008" y="1.67" class="h">pip</text><text x="8.016" y="1.67" class="i">install</text><text x="16.032" y="1.67" class="i">-q</text><text x="19.038" y="1.67" class="i">snowflake-dbml-generator</text></symbol><symbol id="3"><text y="1.67" class="f">~</text><text x="2.004" y="1.67" class="g">❯</text><text x="4.008" y="1.67" class="h">pip</text><text x="8.016" y="1.67" class="j">install</text><text x="16.032" y="1.67" class="i">-q</text><text x="19.038" y="1.67" class="i">snowflake-dbml-generator</text></symbol><symbol id="4"><text y="1.67" class="f">~</text><text x="2.004" y="1.67" class="g">❯</text><text x="4.008" y="1.67" class="h">pip</text><text x="8.016" y="1.67" class="j">install</text><text x="16.032" y="1.67" class="j">-q</text><text x="19.038" y="1.67" class="i">snowflake-dbml-generator</text></symbol><symbol id="5"><text y="1.67" class="f">~</text><text x="2.004" y="1.67" class="g">❯</text><text x="4.008" y="1.67" class="h">pip</text><text x="8.016" y="1.67" class="j">install</text><text x="16.032" y="1.67" class="j">-q</text><text x="19.038" y="1.67" class="j">snowflake-dbml-generator</text></symbol><symbol id="6"><text y="1.67" class="f">~</text><text x="2.004" y="1.67" class="g">❯</text><text x="4.008" y="1.67" class="h">cat</text><text x="8.016" y="1.67" class="i">.env</text></symbol><symbol id="7"><text y="1.67" class="f">~</text><text x="2.004" y="1.67" class="g">❯</text><text x="4.008" y="1.67" class="h">cat</text><text x="8.016" y="1.67" class="k">.env</text></symbol><symbol id="8"><text y="1.67" class="j">#</text><text x="2.004" y="1.67" class="j">Snowflake</text><text x="12.024" y="1.67" class="j">Connection</text><text x="23.046" y="1.67" class="j">Parameters</text></symbol><symbol id="9"><text y="1.67" class="j">SNOWFLAKE_USER=********</text></symbol><symbol id="10"><text y="1.67" class="j">SNOWFLAKE_PASSWORD=********</text></symbol><symbol id="11"><text y="1.67" class="j">SNOWFLAKE_ACCOUNT=******.us-east-2.aws</text></symbol><symbol id="12"><text y="1.67" class="j">SNOWFLAKE_WAREHOUSE=COMPUTE_WH</text></symbol><symbol id="13"><text y="1.67" class="j">SNOWFLAKE_DATABASE=SNOWFLAKE_SAMPLE_DATA</text></symbol><symbol id="14"><text y="1.67" class="j">SNOWFLAKE_ROLE=ACCOUNTADMIN</text></symbol><symbol id="15"><text y="1.67" class="j">INCLUDED_SCHEMAS=TPCDS_SF100TCL</text></symbol><symbol id="16"><text y="1.67" class="j">EXCLUDED_SCHEMAS=INFORAMTION_SCHEMA</text></symbol><symbol id="17"><text y="1.67" class="j">#</text><text x="2.004" y="1.67" class="j">DBML</text><text x="7.014" y="1.67" class="j">Color</text><text x="13.026" y="1.67" class="j">Settings</text><text x="22.044" y="1.67" class="j">-</text><text x="24.048" y="1.67" class="j">Set</text><text x="28.056" y="1.67" class="j">header</text><text x="35.07" y="1.67" class="j">colors</text><text x="42.084" y="1.67" class="j">for</text><text x="46.092" y="1.67" class="j">tables</text><text x="53.106" y="1.67" class="j">and</text><text x="57.114" y="1.67" class="j">views</text></symbol><symbol id="18"><text y="1.67" class="j">TABLE_COLOR=#3498db</text></symbol><symbol id="19"><text y="1.67" class="j">VIEW_COLOR=#9b59b6</text></symbol><symbol id="20"><text y="1.67" class="j">DYNAMIC_TABLE_COLOR=#f39c12</text></symbol><symbol id="21"><text y="1.67" class="j">#CONFIG_FILE=./primary_key_config.json</text></symbol><symbol id="22"><text y="1.67" class="f">~</text><text x="2.004" y="1.67" class="g">❯</text><text x="4.008" y="1.67" class="h">snowflake-dbml</text><text x="19.038" y="1.67" style="white-space:pre" fill="#ffea7f">&gt;</text><text x="21.042" y="1.67" class="k">diagram.dbml</text></symbol><symbol id="a"><path fill="transparent" d="M0 0h70v24H0z"/></symbol><symbol id="b"><path fill="#97979b" d="M0 0h1.102v2.171H0z"/></symbol></defs><path class="a" d="M0 0h70v52.104H0z"/><g style="animation-duration:17.645858s;animation-iteration-count:infinite;animation-name:o;animation-timing-function:steps(1,end)"><svg width="4200"><svg><use xlink:href="#a"/><use xlink:href="#b" x="-.004"/></svg><svg x="70"><use xlink:href="#a"/><use xlink:href="#b" x="-.004"/></svg><svg x="140"><use xlink:href="#a"/><use xlink:href="#b" x="3.996"/><use xlink:href="#1"/></svg><svg x="210"><use xlink:href="#a"/><use xlink:href="#b" x="4.996"/><text y="1.67" class="f">~</text><text x="2.004" y="1.67" class="g">❯</text><text x="4.008" y="1.67" class="j">p</text></svg><svg x="280"><use xlink:href="#a"/><use xlink:href="#b" x="4.996"/><text y="1.67" class="f">~</text><text x="2.004" y="1.67" class="g">❯</text><text x="4.008" y="1.67" class="q">p</text><text x="5.01" y="1.67" class="i">ing</text><text x="9.018" y="1.67" class="i">home</text></svg><svg x="350"><use xlink:href="#a"/><use xlink:href="#b" x="5.996"/><text y="1.67" class="f">~</text><text x="2.004" y="1.67" class="g">❯</text><text x="4.008" y="1.67" class="q">pi</text><text x="6.012" y="1.67" class="i">ng</text><text x="9.018" y="1.67" class="i">home</text></svg><svg x="420"><use xlink:href="#a"/><use xlink:href="#b" x="6.996"/><text y="1.67" class="f">~</text><text x="2.004" y="1.67" class="g">❯</text><text x="4.008" y="1.67" class="q">pip</text></svg><svg x="490"><use xlink:href="#a"/><use xlink:href="#b" x="6.996"/><use xlink:href="#2"/></svg><svg x="560"><use xlink:href="#a"/><use xlink:href="#b" x="7.996"/><use xlink:href="#2"/></svg><svg x="630"><use xlink:href="#a"/><use xlink:href="#b" x="7.996"/><use xlink:href="#2"/></svg><svg x="700"><use xlink:href="#a"/><use xlink:href="#b" x="8.996"/><text y="1.67" class="f">~</text><text x="2.004" y="1.67" class="g">❯</text><text x="4.008" y="1.67" class="h">pip</text><text x="8.016" y="1.67" class="j">i</text><text x="9.018" y="1.67" class="i">nstall</text><text x="16.032" y="1.67" class="i">-q</text><text x="19.038" y="1.67" class="i">snowflake-dbml-generator</text></svg><svg x="770"><use xlink:href="#a"/><use xlink:href="#b" x="9.996"/><text y="1.67" class="f">~</text><text x="2.004" y="1.67" class="g">❯</text><text x="4.008" y="1.67" class="h">pip</text><text x="8.016" y="1.67" class="j">in</text><text x="10.02" y="1.67" class="i">stall</text><text x="16.032" y="1.67" class="i">-q</text><text x="19.038" y="1.67" class="i">snowflake-dbml-generator</text></svg><svg x="840"><use xlink:href="#a"/><use xlink:href="#b" x="10.996"/><text y="1.67" class="f">~</text><text x="2.004" y="1.67" class="g">❯</text><text x="4.008" y="1.67" class="h">pip</text><text x="8.016" y="1.67" class="j">ins</text><text x="11.022" y="1.67" class="i">tall</text><text x="16.032" y="1.67" class="i">-q</text><text x="19.038" y="1.67" class="i">snowflake-dbml-generator</text></svg><svg x="910"><use xlink:href="#a"/><use xlink:href="#b" x="11.996"/><text y="1.67" class="f">~</text><text x="2.004" y="1.67" class="g">❯</text><text x="4.008" y="1.67" class="h">pip</text><text x="8.016" y="1.67" class="j">inst</text><text x="12.024" y="1.67" class="i">all</text><text x="16.032" y="1.67" class="i">-q</text><text x="19.038" y="1.67" class="i">snowflake-dbml-generator</text></svg><svg x="980"><use xlink:href="#a"/><use xlink:href="#b" x="12.996"/><text y="1.67" class="f">~</text><text x="2.004" y="1.67" class="g">❯</text><text x="4.008" y="1.67" class="h">pip</text><text x="8.016" y="1.67" class="j">insta</text><text x="13.026" y="1.67" class="i">ll</text><text x="16.032" y="1.67" class="i">-q</text><text x="19.038" y="1.67" class="i">snowflake-dbml-generator</text></svg><svg x="1050"><use xlink:href="#a"/><use xlink:href="#b" x="13.996"/><text y="1.67" class="f">~</text><text x="2.004" y="1.67" class="g">❯</text><text x="4.008" y="1.67" class="h">pip</text><text x="8.016" y="1.67" class="j">instal</text><text x="14.028" y="1.67" class="i">l</text><text x="16.032" y="1.67" class="i">-q</text><text x="19.038" y="1.67" class="i">snowflake-dbml-generator</text></svg><svg x="1120"><use xlink:href="#a"/><use xlink:href="#b" x="14.996"/><use xlink:href="#3"/></svg><svg x="1190"><use xlink:href="#a"/><use xlink:href="#b" x="15.996"/><use xlink:href="#3"/></svg><svg x="1260"><use xlink:href="#a"/><use xlink:href="#b" x="16.996"/><text y="1.67" class="f">~</text><text x="2.004" y="1.67" class="g">❯</text><text x="4.008" y="1.67" class="h">pip</text><text x="8.016" y="1.67" class="j">install</text><text x="16.032" y="1.67" class="j">-</text><text x="17.034" y="1.67" class="i">q</text><text x="19.038" y="1.67" class="i">snowflake-dbml-generator</text></svg><svg x="1330"><use xlink:href="#a"/><use xlink:href="#b" x="17.996"/><use xlink:href="#4"/></svg><svg x="1400"><use xlink:href="#a"/><use xlink:href="#b" x="18.996"/><use xlink:href="#4"/></svg><svg x="1470"><use xlink:href="#a"/><use xlink:href="#b" x="42.996"/><use xlink:href="#5"/></svg><svg x="1540"><use xlink:href="#a"/><use xlink:href="#b" x="42.996"/><use xlink:href="#5"/></svg><svg x="1610"><use xlink:href="#a"/><use xlink:href="#b" x="-.004" y="2.146"/><use xlink:href="#5"/></svg><svg x="1680"><use xlink:href="#a"/><use xlink:href="#b" x="-.004" y="2.146"/><use xlink:href="#5"/></svg><svg x="1750"><use xlink:href="#a"/><use xlink:href="#b" x="-.004" y="2.146"/><use xlink:href="#5"/></svg><svg x="1820"><use xlink:href="#a"/><use xlink:href="#b" x="3.996" y="2.146"/><use xlink:href="#5"/><use xlink:href="#1" y="2.171"/></svg><svg x="1890"><use xlink:href="#a"/><use xlink:href="#b" x="4.996" y="2.146"/><use xlink:href="#5"/><text y="3.841" class="f">~</text><text x="2.004" y="3.841" class="g">❯</text><text x="4.008" y="3.841" class="j">c</text></svg><svg x="1960"><use xlink:href="#a"/><use xlink:href="#b" x="4.996" y="2.146"/><use xlink:href="#5"/><text y="3.841" class="f">~</text><text x="2.004" y="3.841" class="g">❯</text><text x="4.008" y="3.841" class="k">c</text><text x="5.01" y="3.841" class="i">lear</text></svg><svg x="2030"><use xlink:href="#a"/><use xlink:href="#b" x="5.996" y="2.146"/><use xlink:href="#5"/><text y="3.841" class="f">~</text><text x="2.004" y="3.841" class="g">❯</text><text x="4.008" y="3.841" class="k">ca</text></svg><svg x="2100"><use xlink:href="#a"/><use xlink:href="#b" x="5.996" y="2.146"/><use xlink:href="#5"/><text y="3.841" class="f">~</text><text x="2.004" y="3.841" class="g">❯</text><text x="4.008" y="3.841" class="q">ca</text><text x="6.012" y="3.841" class="i">t</text><text x="8.016" y="3.841" class="i">.env</text></svg><svg x="2170"><use xlink:href="#a"/><use xlink:href="#b" x="6.996" y="2.146"/><use xlink:href="#5"/><text y="3.841" class="f">~</text><text x="2.004" y="3.841" class="g">❯</text><text x="4.008" y="3.841" class="q">cat</text><text x="8.016" y="3.841" class="i">.env</text></svg><svg x="2240"><use xlink:href="#a"/><use xlink:href="#b" x="6.996" y="2.146"/><use xlink:href="#5"/><use xlink:href="#6" y="2.171"/></svg><svg x="2310"><use xlink:href="#a"/><use xlink:href="#b" x="7.996" y="2.146"/><use xlink:href="#5"/><use xlink:href="#6" y="2.171"/></svg><svg x="2380"><use xlink:href="#a"/><use xlink:href="#b" x="8.996" y="2.146"/><use xlink:href="#5"/><text y="3.841" class="f">~</text><text x="2.004" y="3.841" class="g">❯</text><text x="4.008" y="3.841" class="h">cat</text><text x="8.016" y="3.841" class="k">.</text><text x="9.018" y="3.841" class="i">env</text></svg><svg x="2450"><use xlink:href="#a"/><use xlink:href="#b" x="9.996" y="2.146"/><use xlink:href="#5"/><text y="3.841" class="f">~</text><text x="2.004" y="3.841" class="g">❯</text><text x="4.008" y="3.841" class="h">cat</text><text x="8.016" y="3.841" class="k">.e</text><text x="10.02" y="3.841" class="i">nv</text></svg><svg x="2520"><use xlink:href="#a"/><use xlink:href="#b" x="10.996" y="2.146"/><use xlink:href="#5"/><text y="3.841" class="f">~</text><text x="2.004" y="3.841" class="g">❯</text><text x="4.008" y="3.841" class="h">cat</text><text x="8.016" y="3.841" class="k">.en</text><text x="11.022" y="3.841" class="i">v</text></svg><svg x="2590"><use xlink:href="#a"/><use xlink:href="#b" x="11.996" y="2.146"/><use xlink:href="#5"/><use xlink:href="#7" y="2.171"/></svg><svg x="2660"><use xlink:href="#a"/><use xlink:href="#b" x="11.996" y="2.146"/><use xlink:href="#5"/><use xlink:href="#7" y="2.171"/></svg><svg x="2730"><use xlink:href="#a"/><use xlink:href="#b" x="-.004" y="4.317"/><use xlink:href="#5"/><use xlink:href="#7" y="2.171"/></svg><svg x="2800"><use xlink:href="#a"/><use xlink:href="#b" x="-.004" y="41.224"/><use xlink:href="#5"/><use xlink:href="#7" y="2.171"/><use xlink:href="#8" y="4.342"/><use xlink:href="#9" y="6.513"/><use xlink:href="#10" y="8.684"/><use xlink:href="#11" y="10.855"/><use xlink:href="#12" y="13.026"/><use xlink:href="#13" y="15.197"/><use xlink:href="#14" y="17.368"/><use xlink:href="#15" y="21.71"/><use xlink:href="#16" y="23.881"/><use xlink:href="#17" y="28.223"/><use xlink:href="#18" y="30.394"/><use xlink:href="#19" y="32.565"/><use xlink:href="#20" y="34.736"/><use xlink:href="#21" y="39.078"/></svg><svg x="2870"><use xlink:href="#a"/><use xlink:href="#b" x="-.004" y="41.224"/><use xlink:href="#5"/><use xlink:href="#7" y="2.171"/><use xlink:href="#8" y="4.342"/><use xlink:href="#9" y="6.513"/><use xlink:href="#10" y="8.684"/><use xlink:href="#11" y="10.855"/><use xlink:href="#12" y="13.026"/><use xlink:href="#13" y="15.197"/><use xlink:href="#14" y="17.368"/><use xlink:href="#15" y="21.71"/><use xlink:href="#16" y="23.881"/><use xlink:href="#17" y="28.223"/><use xlink:href="#18" y="30.394"/><use xlink:href="#19" y="32.565"/><use xlink:href="#20" y="34.736"/><use xlink:href="#21" y="39.078"/></svg><svg x="2940"><use xlink:href="#a"/><use xlink:href="#b" x="-.004" y="41.224"/><use xlink:href="#5"/><use xlink:href="#7" y="2.171"/><use xlink:href="#8" y="4.342"/><use xlink:href="#9" y="6.513"/><use xlink:href="#10" y="8.684"/><use xlink:href="#11" y="10.855"/><use xlink:href="#12" y="13.026"/><use xlink:href="#13" y="15.197"/><use xlink:href="#14" y="17.368"/><use xlink:href="#15" y="21.71"/><use xlink:href="#16" y="23.881"/><use xlink:href="#17" y="28.223"/><use xlink:href="#18" y="30.394"/><use xlink:href="#19" y="32.565"/><use xlink:href="#20" y="34.736"/><use xlink:href="#21" y="39.078"/></svg><svg x="3010"><use xlink:href="#a"/><use xlink:href="#b" x="3.996" y="41.224"/><use xlink:href="#5"/><use xlink:href="#7" y="2.171"/><use xlink:href="#8" y="4.342"/><use xlink:href="#9" y="6.513"/><use xlink:href="#10" y="8.684"/><use xlink:href="#11" y="10.855"/><use xlink:href="#12" y="13.026"/><use xlink:href="#13" y="15.197"/><use xlink:href="#14" y="17.368"/><use xlink:href="#15" y="21.71"/><use xlink:href="#16" y="23.881"/><use xlink:href="#17" y="28.223"/><use xlink:href="#18" y="30.394"/><use xlink:href="#19" y="32.565"/><use xlink:href="#20" y="34.736"/><use xlink:href="#21" y="39.078"/><use xlink:href="#1" y="41.249"/></svg><svg x="3080"><use xlink:href="#a"/><use xlink:href="#b" x="3.996" y="41.224"/><use xlink:href="#5"/><use xlink:href="#7" y="2.171"/><use xlink:href="#8" y="4.342"/><use xlink:href="#9" y="6.513"/><use xlink:href="#10" y="8.684"/><use xlink:href="#11" y="10.855"/><use xlink:href="#12" y="13.026"/><use xlink:href="#13" y="15.197"/><use xlink:href="#14" y="17.368"/><use xlink:href="#15" y="21.71"/><use xlink:href="#16" y="23.881"/><use xlink:href="#17" y="28.223"/><use xlink:href="#18" y="30.394"/><use xlink:href="#19" y="32.565"/><use xlink:href="#20" y="34.736"/><use xlink:href="#21" y="39.078"/><use xlink:href="#1" y="41.249"/></svg><svg x="3150"><use xlink:href="#a"/><use xlink:href="#b" x="4.996" y="41.224"/><use xlink:href="#5"/><use xlink:href="#7" y="2.171"/><use xlink:href="#8" y="4.342"/><use xlink:href="#9" y="6.513"/><use xlink:href="#10" y="8.684"/><use xlink:href="#11" y="10.855"/><use xlink:href="#12" y="13.026"/><use xlink:href="#13" y="15.197"/><use xlink:href="#14" y="17.368"/><use xlink:href="#15" y="21.71"/><use xlink:href="#16" y="23.881"/><use xlink:href="#17" y="28.223"/><use xlink:href="#18" y="30.394"/><use xlink:href="#19" y="32.565"/><use xlink:href="#20" y="34.736"/><use xlink:href="#21" y="39.078"/><text y="42.919" class="f">~</text><text x="2.004" y="42.919" class="g">❯</text><text x="4.008" y="42.919" class="j">s</text></svg><svg x="3220"><use xlink:href="#a"/><use xlink:href="#b" x="4.996" y="41.224"/><use xlink:href="#5"/><use xlink:href="#7" y="2.171"/><use xlink:href="#8" y="4.342"/><use xlink:href="#9" y="6.513"/><use xlink:href="#10" y="8.684"/><use xlink:href="#11" y="10.855"/><use xlink:href="#12" y="13.026"/><use xlink:href="#13" y="15.197"/><use xlink:href="#14" y="17.368"/><use xlink:href="#15" y="21.71"/><use xlink:href="#16" y="23.881"/><use xlink:href="#17" y="28.223"/><use xlink:href="#18" y="30.394"/><use xlink:href="#19" y="32.565"/><use xlink:href="#20" y="34.736"/><use xlink:href="#21" y="39.078"/><text y="42.919" class="f">~</text><text x="2.004" y="42.919" class="g">❯</text><text x="4.008" y="42.919" class="k">s</text><text x="5.01" y="42.919" class="i">sh</text><text x="8.016" y="42.919" class="i">rozich@home</text></svg><svg x="3290"><use xlink:href="#a"/><use xlink:href="#b" x="5.996" y="41.224"/><use xlink:href="#5"/><use xlink:href="#7" y="2.171"/><use xlink:href="#8" y="4.342"/><use xlink:href="#9" y="6.513"/><use xlink:href="#10" y="8.684"/><use xlink:href="#11" y="10.855"/><use xlink:href="#12" y="13.026"/><use xlink:href="#13" y="15.197"/><use xlink:href="#14" y="17.368"/><use xlink:href="#15" y="21.71"/><use xlink:href="#16" y="23.881"/><use xlink:href="#17" y="28.223"/><use xlink:href="#18" y="30.394"/><use xlink:href="#19" y="32.565"/><use xlink:href="#20" y="34.736"/><use xlink:href="#21" y="39.078"/><text y="42.919" class="f">~</text><text x="2.004" y="42.919" class="g">❯</text><text x="4.008" y="42.919" class="k">sn</text></svg><svg x="3360"><use xlink:href="#a"/><use xlink:href="#b" x="5.996" y="41.224"/><use xlink:href="#5"/><use xlink:href="#7" y="2.171"/><use xlink:href="#8" y="4.342"/><use xlink:href="#9" y="6.513"/><use xlink:href="#10" y="8.684"/><use xlink:href="#11" y="10.855"/><use xlink:href="#12" y="13.026"/><use xlink:href="#13" y="15.197"/><use xlink:href="#14" y="17.368"/><use xlink:href="#15" y="21.71"/><use xlink:href="#16" y="23.881"/><use xlink:href="#17" y="28.223"/><use xlink:href="#18" y="30.394"/><use xlink:href="#19" y="32.565"/><use xlink:href="#20" y="34.736"/><use xlink:href="#21" y="39.078"/><text y="42.919" class="f">~</text><text x="2.004" y="42.919" class="g">❯</text><text x="4.008" y="42.919" class="q">sn</text><text x="6.012" y="42.919" class="i">owflake-dbml</text><text x="19.038" y="42.919" class="i">&gt;</text><text x="21.042" y="42.919" class="i">diagram.dbml</text></svg><svg x="3430"><use xlink:href="#a"/><use xlink:href="#b" x="6.996" y="41.224"/><use xlink:href="#5"/><use xlink:href="#7" y="2.171"/><use xlink:href="#8" y="4.342"/><use xlink:href="#9" y="6.513"/><use xlink:href="#10" y="8.684"/><use xlink:href="#11" y="10.855"/><use xlink:href="#12" y="13.026"/><use xlink:href="#13" y="15.197"/><use xlink:href="#14" y="17.368"/><use xlink:href="#15" y="21.71"/><use xlink:href="#16" y="23.881"/><use xlink:href="#17" y="28.223"/><use xlink:href="#18" y="30.394"/><use xlink:href="#19" y="32.565"/><use xlink:href="#20" y="34.736"/><use xlink:href="#21" y="39.078"/><text y="42.919" class="f">~</text><text x="2.004" y="42.919" class="g">❯</text><text x="4.008" y="42.919" class="q">sno</text><text x="7.014" y="42.919" class="i">wflake-dbml</text><text x="19.038" y="42.919" class="i">&gt;</text><text x="21.042" y="42.919" class="i">diagram.dbml</text></svg><svg x="3500"><use xlink:href="#a"/><use xlink:href="#b" x="7.996" y="41.224"/><use xlink:href="#5"/><use xlink:href="#7" y="2.171"/><use xlink:href="#8" y="4.342"/><use xlink:href="#9" y="6.513"/><use xlink:href="#10" y="8.684"/><use xlink:href="#11" y="10.855"/><use xlink:href="#12" y="13.026"/><use xlink:href="#13" y="15.197"/><use xlink:href="#14" y="17.368"/><use xlink:href="#15" y="21.71"/><use xlink:href="#16" y="23.881"/><use xlink:href="#17" y="28.223"/><use xlink:href="#18" y="30.394"/><use xlink:href="#19" y="32.565"/><use xlink:href="#20" y="34.736"/><use xlink:href="#21" y="39.078"/><text y="42.919" class="f">~</text><text x="2.004" y="42.919" class="g">❯</text><text x="4.008" y="42.919" class="q">snow</text><text x="8.016" y="42.919" class="i">flake-dbml</text><text x="19.038" y="42.919" class="i">&gt;</text><text x="21.042" y="42.919" class="i">diagram.dbml</text></svg><svg x="3570"><use xlink:href="#a"/><use xlink:href="#b" x="32.996" y="41.224"/><use xlink:href="#5"/><use xlink:href="#7" y="2.171"/><use xlink:href="#8" y="4.342"/><use xlink:href="#9" y="6.513"/><use xlink:href="#10" y="8.684"/><use xlink:href="#11" y="10.855"/><use xlink:href="#12" y="13.026"/><use xlink:href="#13" y="15.197"/><use xlink:href="#14" y="17.368"/><use xlink:href="#15" y="21.71"/><use xlink:href="#16" y="23.881"/><use xlink:href="#17" y="28.223"/><use xlink:href="#18" y="30.394"/><use xlink:href="#19" y="32.565"/><use xlink:href="#20" y="34.736"/><use xlink:href="#21" y="39.078"/><text y="42.919" class="f">~</text><text x="2.004" y="42.919" class="g">❯</text><text x="4.008" y="42.919" class="q">snow</text><text x="8.016" y="42.919" class="j">flake-dbml</text><text x="19.038" y="42.919" class="j">&gt;</text><text x="21.042" y="42.919" class="j">diagram.dbml</text></svg><svg x="3640"><use xlink:href="#a"/><use xlink:href="#b" x="32.996" y="41.224"/><use xlink:href="#5"/><use xlink:href="#7" y="2.171"/><use xlink:href="#8" y="4.342"/><use xlink:href="#9" y="6.513"/><use xlink:href="#10" y="8.684"/><use xlink:href="#11" y="10.855"/><use xlink:href="#12" y="13.026"/><use xlink:href="#13" y="15.197"/><use xlink:href="#14" y="17.368"/><use xlink:href="#15" y="21.71"/><use xlink:href="#16" y="23.881"/><use xlink:href="#17" y="28.223"/><use xlink:href="#18" y="30.394"/><use xlink:href="#19" y="32.565"/><use xlink:href="#20" y="34.736"/><use xlink:href="#21" y="39.078"/><use xlink:href="#22" y="41.249"/></svg><svg x="3710"><use xlink:href="#a"/><use xlink:href="#b" x="32.996" y="41.224"/><use xlink:href="#5"/><use xlink:href="#7" y="2.171"/><use xlink:href="#8" y="4.342"/><use xlink:href="#9" y="6.513"/><use xlink:href="#10" y="8.684"/><use xlink:href="#11" y="10.855"/><use xlink:href="#12" y="13.026"/><use xlink:href="#13" y="15.197"/><use xlink:href="#14" y="17.368"/><use xlink:href="#15" y="21.71"/><use xlink:href="#16" y="23.881"/><use xlink:href="#17" y="28.223"/><use xlink:href="#18" y="30.394"/><use xlink:href="#19" y="32.565"/><use xlink:href="#20" y="34.736"/><use xlink:href="#21" y="39.078"/><use xlink:href="#22" y="41.249"/></svg><svg x="3780"><use xlink:href="#a"/><use xlink:href="#b" x="-.004" y="43.395"/><use xlink:href="#5"/><use xlink:href="#7" y="2.171"/><use xlink:href="#8" y="4.342"/><use xlink:href="#9" y="6.513"/><use xlink:href="#10" y="8.684"/><use xlink:href="#11" y="10.855"/><use xlink:href="#12" y="13.026"/><use xlink:href="#13" y="15.197"/><use xlink:href="#14" y="17.368"/><use xlink:href="#15" y="21.71"/><use xlink:href="#16" y="23.881"/><use xlink:href="#17" y="28.223"/><use xlink:href="#18" y="30.394"/><use xlink:href="#19" y="32.565"/><use xlink:href="#20" y="34.736"/><use xlink:href="#21" y="39.078"/><use xlink:href="#22" y="41.249"/></svg><svg x="3850"><use xlink:href="#a"/><use xlink:href="#b" x="-.004" y="43.395"/><use xlink:href="#5"/><use xlink:href="#7" y="2.171"/><use xlink:href="#8" y="4.342"/><use xlink:href="#9" y="6.513"/><use xlink:href="#10" y="8.684"/><use xlink:href="#11" y="10.855"/><use xlink:href="#12" y="13.026"/><use xlink:href="#13" y="15.197"/><use xlink:href="#14" y="17.368"/><use xlink:href="#15" y="21.71"/><use xlink:href="#16" y="23.881"/><use xlink:href="#17" y="28.223"/><use xlink:href="#18" y="30.394"/><use xlink:href="#19" y="32.565"/><use xlink:href="#20" y="34.736"/><use xlink:href="#21" y="39.078"/><use xlink:href="#22" y="41.249"/></svg><svg x="3920"><use xlink:href="#a"/><use xlink:href="#b" x="-.004" y="43.395"/><use xlink:href="#5"/><use xlink:href="#7" y="2.171"/><use xlink:href="#8" y="4.342"/><use xlink:href="#9" y="6.513"/><use xlink:href="#10" y="8.684"/><use xlink:href="#11" y="10.855"/><use xlink:href="#12" y="13.026"/><use xlink:href="#13" y="15.197"/><use xlink:href="#14" y="17.368"/><use xlink:href="#15" y="21.71"/><use xlink:href="#16" y="23.881"/><use xlink:href="#17" y="28.223"/><use xlink:href="#18" y="30.394"/><use xlink:href="#19" y="32.565"/><use xlink:href="#20" y="34.736"/><use xlink:href="#21" y="39.078"/><use xlink:href="#22" y="41.249"/></svg><svg x="3990"><use xlink:href="#a"/><use xlink:href="#b" x="-.004" y="43.395"/><use xlink:href="#5"/><use xlink:href="#7" y="2.171"/><use xlink:href="#8" y="4.342"/><use xlink:href="#9" y="6.513"/><use xlink:href="#10" y="8.684"/><use xlink:href="#11" y="10.855"/><use xlink:href="#12" y="13.026"/><use xlink:href="#13" y="15.197"/><use xlink:href="#14" y="17.368"/><use xlink:href="#15" y="21.71"/><use xlink:href="#16" y="23.881"/><use xlink:href="#17" y="28.223"/><use xlink:href="#18" y="30.394"/><use xlink:href="#19" y="32.565"/><use xlink:href="#20" y="34.736"/><use xlink:href="#21" y="39.078"/><use xlink:href="#22" y="41.249"/></svg><svg x="4060"><use xlink:href="#a"/><use xlink:href="#b" x="3.996" y="43.395"/><use xlink:href="#5"/><use xlink:href="#7" y="2.171"/><use xlink:href="#8" y="4.342"/><use xlink:href="#9" y="6.513"/><use xlink:href="#10" y="8.684"/><use xlink:href="#11" y="10.855"/><use xlink:href="#12" y="13.026"/><use xlink:href="#13" y="15.197"/><use xlink:href="#14" y="17.368"/><use xlink:href="#15" y="21.71"/><use xlink:href="#16" y="23.881"/><use xlink:href="#17" y="28.223"/><use xlink:href="#18" y="30.394"/><use xlink:href="#19" y="32.565"/><use xlink:href="#20" y="34.736"/><use xlink:href="#21" y="39.078"/><use xlink:href="#22" y="41.249"/><use xlink:href="#1" y="43.42"/></svg><svg x="4130"><use xlink:href="#a"/><use xlink:href="#b" x="-.004" y="45.566"/><use xlink:href="#5"/><use xlink:href="#7" y="2.171"/><use xlink:href="#8" y="4.342"/><use xlink:href="#9" y="6.513"/><use xlink:href="#10" y="8.684"/><use xlink:href="#11" y="10.855"/><use xlink:href="#12" y="13.026"/><use xlink:href="#13" y="15.197"/><use xlink:href="#14" y="17.368"/><use xlink:href="#15" y="21.71"/><use xlink:href="#16" y="23.881"/><use xlink:href="#17" y="28.223"/><use xlink:href="#18" y="30.394"/><use xlink:href="#19" y="32.565"/><use xlink:href="#20" y="34.736"/><use xlink:href="#21" y="39.078"/><use xlink:href="#22" y="41.249"/><use xlink:href="#1" y="43.42"/></svg></svg></g></g></svg></svg>